<svg xmlns="http://www.w3.org/2000/svg" width="62" height="62" viewBox="0 0 163.08 108.56"><defs><style>			.cls-1			{				fill:#ebf8f1;			}			.cls-2			{				fill:#00ab55;			}		</style></defs><g id="Layer_2" data-name="Layer 2"><g id="Layer_1-2" data-name="Layer 1"><path class="cls-1" d="M112.52,103.84H35.75c-25.41-6-31.26-25.83-31-35C4.26,56.44,10.69,33,39.5,34.25A5.37,5.37,0,0,0,44.66,31C53.94,9,74.55,4.28,84.14,4.75c22.86,0,36.41,16.09,41.66,26.55a5.57,5.57,0,0,0,5,3.07c22.7-.36,27.83,16.45,27.53,26.72a4.26,4.26,0,0,1-1.41,3l-41.19,38.49A4.73,4.73,0,0,1,112.52,103.84Z"></path><path class="cls-2" d="M112.52,108.56A9.41,9.41,0,0,0,119,106l-6.45-6.9h0Zm47.64-41a9,9,0,0,0,2.91-6.3L153.63,61a1.09,1.09,0,0,1,.06-.28c0-.05,0-.05,0,0ZM130.74,29.65a.84.84,0,0,1-.72-.47l-8.44,4.23a10.26,10.26,0,0,0,9.31,5.67Zm-90.43-.5a.62.62,0,0,1-.25.29.69.69,0,0,1-.35.1L39.3,39A10.11,10.11,0,0,0,49,32.83ZM9.46,68.64C9.25,63.19,10.6,55.34,15,49.15,19.16,43.27,26.42,38.41,39.3,39l.41-9.43c-15.93-.7-26.3,5.53-32.42,14.15C1.38,52-.24,62.08,0,69ZM0,68.7c-.3,10.87,6.56,33.15,34.64,39.74l2.15-9.19C14.09,93.92,9.26,76.46,9.46,69ZM84.37,0C73.5-.5,50.61,4.79,40.31,29.15L49,32.83c8.27-19.59,26.6-23.77,34.9-23.37ZM130,29.18C124.35,17.87,109.49,0,84.14,0V9.47c20.37,0,32.62,14.33,37.44,23.94Zm33,32.05c.17-5.85-1.18-13.77-6.09-20.32-5.09-6.78-13.55-11.46-26.24-11.26l.15,9.43c10-.15,15.47,3.4,18.54,7.5A23.38,23.38,0,0,1,153.63,61ZM119,106l41.19-38.49-6.45-6.9L112.52,99.12Zm-83.22,2.54h76.77V99.12H35.75ZM39.5,34.25,39.3,39ZM4.74,68.83,9.46,69v-.32ZM44.66,31l-4.35-1.84h0ZM84.14,4.75l-.23,4.71h.23ZM125.8,31.3,130,29.18h0Zm5,3.07-.08-4.72h0Zm27.53,26.72L153.63,61h0Zm-1.41,3,3.22,3.45h0Zm-41.19,38.49-3.23-3.45h0Zm-80,1.27-1.08,4.6.53.12h.55Z"></path><path class="cls-2" d="M116,66.44h0V57a9.44,9.44,0,0,0-9.44,9.44Zm0,0h39.89V57H116Zm0,34.93V66.44h-9.44v34.93Z"></path></g></g></svg>