<svg xmlns="http://www.w3.org/2000/svg" width="40" height="40" viewBox="0 0 40 40" fill="none">
  <path
      d="M40 11.7038V28.294C40 29.3444 39.4166 30.287 38.4779 30.7564L20.8076 39.7103C20.4226 39.9017 20.0016 39.9977 19.5815 39.9977H19.5643C19.1316 39.9946 18.6998 39.8916 18.3077 39.6869L18.3007 39.683L1.4768 30.7541C0.566172 30.2769 0 29.3428 0 28.3143V11.6835C0 11.2141 0.117109 10.7658 0.331172 10.3707C0.587343 9.89893 0.980937 9.50378 1.47687 9.24448L18.3076 0.311673C19.087 -0.0952018 20.0211 -0.103796 20.8076 0.288236L20.8154 0.291361L38.4779 9.24136C38.9965 9.50065 39.4065 9.9044 39.669 10.391C39.8829 10.7853 40 11.2336 40 11.7038Z"
      fill="#FFE16A"/>
  <path
      d="M39.9994 11.7037V28.2939C39.9994 29.3443 39.416 30.2869 38.4773 30.7563L20.807 39.7102C20.422 39.9016 20.001 39.9976 19.5809 39.9976H19.5637V20.3256L39.6684 10.3909C39.8823 10.7852 39.9994 11.2335 39.9994 11.7037Z"
      fill="#FFC107"/>
  <path
      d="M39.6697 10.391L30.7166 14.8152L28.5143 15.9039L19.5651 20.3257L0.332016 10.3707C0.588188 9.89894 0.981781 9.50379 1.47772 9.24449L8.69318 5.41457L11.1947 4.08691L18.3086 0.311682C18.7014 0.106292 19.1333 0.0023856 19.5651 4.18528e-05C19.9915 -0.0023019 20.4179 0.0937918 20.8084 0.288245L20.8162 0.29137L38.4788 9.24136C38.9973 9.50066 39.4073 9.90441 39.6697 10.391Z"
      fill="#FFF7CD"/>
  <path
      d="M30.7651 15.1486C30.7651 15.1486 30.7651 15.1486 30.7651 15.1494V21.3105C30.7651 21.9571 30.2402 22.482 29.5936 22.482C28.947 22.482 28.4221 21.9571 28.4221 21.3105V15.8554L19.5643 11.168L8.69235 5.41457L11.1938 4.08691L19.5643 8.5166L30.1418 14.1139C30.1434 14.1146 30.1449 14.1154 30.1465 14.1162C30.1691 14.1287 30.191 14.1428 30.2129 14.1561C30.2246 14.1631 30.2371 14.1701 30.2488 14.1779L30.2496 14.1787C30.341 14.2404 30.4214 14.3138 30.4894 14.395C30.4925 14.3989 30.4956 14.4021 30.498 14.4052C30.5152 14.4255 30.53 14.4474 30.5456 14.4685C30.5527 14.4786 30.5605 14.488 30.5675 14.4989C30.5784 14.5146 30.587 14.531 30.5972 14.5474C30.6073 14.5646 30.6183 14.5818 30.6277 14.5997C30.6331 14.6099 30.6378 14.62 30.6425 14.6302C30.655 14.6552 30.6667 14.6802 30.6777 14.706C30.6792 14.7099 30.68 14.713 30.6816 14.7161C30.6948 14.7489 30.7058 14.7818 30.7152 14.8153C30.737 14.8849 30.7519 14.9575 30.7589 15.0325C30.7627 15.0713 30.7651 15.1096 30.7651 15.1486Z"
      fill="#FFE16A"/>
  <path
      d="M30.7636 15.1487C30.7636 15.1487 30.7636 15.1487 30.7636 15.1495V21.3106C30.7636 21.9572 30.2388 22.4821 29.5922 22.4821C28.9455 22.4821 28.4207 21.9572 28.4207 21.3106V15.9484L30.7136 14.8152C30.7355 14.8847 30.7504 14.9573 30.7574 15.0323C30.7613 15.0714 30.7636 15.1096 30.7636 15.1487Z"
      fill="#B78103"/>
</svg>