<svg xmlns="http://www.w3.org/2000/svg" width="80" height="67" viewBox="0 0 80 67" fill="none">
  <path
      d="M73.6681 12.8306C63.4467 4.97236 53.5327 11.3767 42.4744 9.11236C31.3363 6.83158 26.8986 -0.76264 14.2125 2.74283C2.97469 5.84798 -3.84406 18.2977 2.33375 28.7206C4.09422 31.6908 7.09328 33.9316 8.31891 37.2549C10.2959 42.616 7.28656 46.7319 7.87359 52.0005C10.313 73.8913 43.7445 65.4121 56.0459 58.6013C75.3381 47.92 88.3894 24.1486 73.6681 12.8306Z"
      fill="url(#paint0_linear_2360_381)" fill-opacity="0.12"/>
  <path opacity="0.24"
        d="M64.2457 4.87131C63.6655 4.87131 63.0854 4.65037 62.6437 4.20881C61.7604 3.32553 61.7604 1.88818 62.6437 1.00474C63.5269 0.121304 64.9645 0.121304 65.8477 1.00474C66.731 1.88818 66.731 3.32537 65.8477 4.20881C65.4062 4.65037 64.826 4.87131 64.2457 4.87131ZM64.2459 1.90396C64.0657 1.90396 63.8857 1.9724 63.7487 2.10959C63.4746 2.38365 63.4746 2.82974 63.7487 3.10396C64.0227 3.37803 64.4688 3.37818 64.743 3.10396C65.0171 2.8299 65.0171 2.3838 64.743 2.10959C64.6059 1.9724 64.4259 1.90396 64.2459 1.90396V1.90396Z"
        fill="#00AB55"/>
  <path opacity="0.48"
        d="M68.175 12.5105C67.5949 12.5107 67.0147 12.2898 66.573 11.848C66.1451 11.4201 65.9094 10.8512 65.9094 10.246C65.9094 9.64084 66.1451 9.07194 66.573 8.64397C67.4561 7.76068 68.8935 7.76053 69.7769 8.64397C70.2049 9.07194 70.4405 9.64084 70.4405 10.246C70.4405 10.8513 70.2049 11.4202 69.7768 11.848C69.3355 12.2896 68.7552 12.5105 68.175 12.5105V12.5105ZM68.175 9.54319C67.995 9.54319 67.8149 9.61162 67.6779 9.74881C67.5449 9.88162 67.4719 10.0582 67.4719 10.246C67.4719 10.4338 67.5451 10.6104 67.6779 10.7432C67.9521 11.0174 68.3982 11.0174 68.6722 10.7432C68.8052 10.6104 68.8782 10.4338 68.8782 10.246C68.8782 10.0582 68.805 9.88178 68.6722 9.74881C68.5352 9.61162 68.3552 9.54319 68.175 9.54319V9.54319Z"
        fill="#00AB55"/>
  <path opacity="0.24"
        d="M16.4649 28.9938C15.8848 28.9938 15.3045 28.7729 14.8629 28.3313C13.9796 27.4479 13.9796 26.0105 14.8629 25.1272C15.7462 24.2441 17.1837 24.244 18.067 25.1272C18.9502 26.0107 18.9502 27.4479 18.067 28.3313C17.6254 28.7729 17.0451 28.9938 16.4649 28.9938ZM16.4649 26.0265C16.2849 26.0265 16.1048 26.0949 15.9677 26.2321C15.6935 26.5061 15.6935 26.9522 15.9677 27.2265C16.2418 27.5007 16.6881 27.5005 16.9621 27.2265C17.2363 26.9524 17.2363 26.5063 16.9621 26.2321C16.8251 26.0949 16.6451 26.0265 16.4649 26.0265Z"
        fill="#00AB55"/>
  <path opacity="0.48"
        d="M15.4577 36.0159C15.2577 36.0159 15.0579 35.9396 14.9052 35.7871L13.9733 34.8552L13.0415 35.7871C12.7363 36.0921 12.2418 36.0921 11.9366 35.7871C11.6315 35.4819 11.6315 34.9873 11.9366 34.6823L13.421 33.1979C13.7262 32.8929 14.2207 32.8929 14.5258 33.1979L16.0102 34.6823C16.3154 34.9874 16.3154 35.4821 16.0102 35.7871C15.8576 35.9394 15.6577 36.0159 15.4577 36.0159Z"
        fill="#00AB55"/>
  <path opacity="0.48"
        d="M66.6906 58.6407C66.4906 58.6407 66.2908 58.5645 66.1381 58.412L65.2063 57.4801L64.2744 58.412C63.9692 58.717 63.4747 58.717 63.1695 58.412C62.8644 58.1068 62.8644 57.6121 63.1695 57.3071L64.6539 55.8227C64.9591 55.5177 65.4536 55.5177 65.7588 55.8227L67.2431 57.3071C67.5483 57.6123 67.5483 58.107 67.2431 58.412C67.0905 58.5643 66.8906 58.6407 66.6906 58.6407Z"
        fill="#00AB55"/>
  <defs>
    <linearGradient id="paint0_linear_2360_381" x1="54.8017" y1="77.502" x2="87.7477" y2="8.15131"
                    gradientUnits="userSpaceOnUse">
      <stop stop-color="#00AB55"/>
      <stop offset="1" stop-color="#00AB55" stop-opacity="0.01"/>
    </linearGradient>
  </defs>
</svg>